<?xml version="1.0" encoding="UTF-8"?>
<!-- Generated by jsxcad -->
<!DOCTYPE svg PUBLIC "-//W3C//DTD SVG 1.1 Tiny//EN" "http://www.w3.org/Graphics/SVG/1.1/DTD/svg11-tiny.dtd">
<svg viewBox="-250 -250 500 500" width="500" height="500" xmlns="http://www.w3.org/2000/svg"><path d="M-58.57934574336716,-4.4453108235285494L-11.94841373848167,83.73327266335014L-1.0826061348192362,96.6928166033304z" style="fill:rgb(23,55,145)"/><path d="M-32.731794085597144,3.2928541461499132L-1.0826171851952302,96.69280803630318L23.30214687815535,105.57467016729828z" style="fill:rgb(57,36,182)"/><path d="M72.02673862102293,-54.625123420419285L107.56084511994054,71.31820677822837L117.57992016771004,52.98328372109751z" style="fill:rgb(231,109,199)"/><path d="M-140.68496651430698,-141.2717579030155L-15.541983609343983,79.44726261427255L-11.94841373848167,83.73327266335014zM-58.57934574336716,-4.4453108235285494L-69.55076054534935,-16.94378315170465L-11.94841373848167,83.73327266335014z" style="fill:rgb(23,55,145)"/><path d="M6.950635121519683e-15,0.10413249425228185L23.30214687815535,105.57467016729828L53.44131517486579,103.92777761198747z" style="fill:rgb(102,32,209)"/><path d="M60.32598794185164,-35.632663925531155L83.53490232073112,91.72253555277983L107.56085100729209,71.3181909222734z" style="fill:rgb(197,72,218)"/><path d="M33.27003187296529,-13.779848935778128L53.44131517486579,103.92777761198747L83.53490232073112,91.72253555277983z" style="fill:rgb(152,45,222)"/><path d="M-32.731794085597144,3.2928541461499132L-58.57936084306425,-4.4453232534902405L-1.0826171851952302,96.69280803630318z" style="fill:rgb(57,36,182)"/><path d="M121.52463390250865,23.182954587202737L19.975052446849723,-194.97111983977493L120.91602335776595,46.87820543939605z" style="fill:rgb(246,148,167)"/><path d="M19.97506590148223,-194.97113630926938L117.57992016771004,52.98328372109751L120.91603627785845,46.87818651062981zM72.02673862102293,-54.625123420419285L60.32597221079027,-35.63264789046602L107.56084511994054,71.31820677822837z" style="fill:rgb(231,109,199)"/><path d="M6.950635121519683e-15,0.10413249425228185L-32.731794085597144,3.2928541461499132L23.30214687815535,105.57467016729828z" style="fill:rgb(102,32,209)"/><path d="M60.32598794185164,-35.632663925531155L33.27003187296529,-13.779848935778128L83.53490232073112,91.72253555277983z" style="fill:rgb(197,72,218)"/><path d="M33.27003187296529,-13.779848935778128L6.950635121519683e-15,0.10413249425228185L53.44131517486579,103.92777761198747z" style="fill:rgb(152,45,222)"/><path d="M6.950635121519683e-15,0.10413249425228185L-69.55074667047893,-16.943765926546185L-58.57936084306425,-4.4453232534902405zM6.950635121519683e-15,0.10413249425228185L72.02672361660377,-54.62509590886129L-69.55074667047893,-16.943765926546185zM6.950635121519683e-15,0.10413249425228185L-58.57936084306425,-4.4453232534902405L-32.731794085597144,3.2928541461499132z" style="fill:rgb(83,212,212)"/><path d="M-140.68496651430698,-141.2717579030155L-144.24621863125228,-145.03584093292247L-15.541983609343983,79.44726261427255z" style="fill:rgb(23,55,145)"/><path d="M45.31704816177574,-117.72024579762427L-69.55074667047893,-16.943765926546185L72.02672361660377,-54.62509590886129z" style="fill:rgb(127,37,217)"/><path d="M6.950635121519683e-15,0.10413249425228185L60.32598794185164,-35.632663925531155L72.02672361660377,-54.62509590886129z" style="fill:rgb(83,212,212)"/><path d="M45.31704816177574,-117.72024579762427L-103.14487799220167,-75.65940581545273L-69.55074667047893,-16.943765926546185z" style="fill:rgb(127,37,217)"/><path d="M6.950635121519683e-15,0.10413249425228185L33.27003187296529,-13.779848935778128L60.32598794185164,-35.632663925531155zM2.4179411665013198e-14,0.10413249425227743L-33.06429274319171,13.902256529612455L-60.87417300315797,36.16567084706716zM2.4179411665013198e-14,0.10413249425227743L-60.87417300315797,36.16567084706716L-74.55556208889689,56.754889066291256z" style="fill:rgb(83,212,212)"/><path d="M121.52463390250865,23.182954587202737L23.266244219454013,-218.20127570700515L19.975052446849723,-194.97111983977493z" style="fill:rgb(246,148,167)"/><path d="M2.4179411665013198e-14,0.10413249425227743L62.76253240547119,4.978466383963059L33.61361296888115,-3.1704956911774858zM2.4179411665013198e-14,0.10413249425227743L-74.55556208889689,56.754889066291256L77.40800569795387,19.07795925052822z" style="fill:rgb(83,212,212)"/><path d="M19.97506590148223,-194.97113630926938L15.34476581150345,-188.52260466073952L117.57992016771004,52.98328372109751z" style="fill:rgb(231,109,199)"/><path d="M2.4179411665013198e-14,0.10413249425227743L77.40800569795387,19.07795925052822L62.76253240547119,4.978466383963059z" style="fill:rgb(83,212,212)"/><path d="M-129.86084415096667,-129.83114284413273L-103.14489182880514,-75.65942038110997L-92.20468547208903,-63.59307982014364z" style="fill:rgb(23,55,145)"/><path d="M-29.55674639178394,-145.64878891275086L-75.55494975318761,-229.92559531637292L-106.46730569494902,-212.24371061497965zM-29.55674639178394,-145.64878891275086L-42.33515009883779,-240.56226413011242L-75.55494975318761,-229.92559531637292zM-29.55674639178394,-145.64878891275086L-106.46730569494902,-212.24371061497965L-130.61588601976365,-190.0107345172621zM-29.55674639178394,-145.64878891275086L-11.614262275107263,-242.42741025589115L-42.33515009883779,-240.56226413011242z" style="fill:rgb(83,212,212)"/><path d="M-129.86084415096667,-129.83114284413273L-140.68496651430698,-141.2717579030155L-103.14489182880514,-75.65942038110997z" style="fill:rgb(23,55,145)"/><path d="M-29.55674639178394,-145.64878891275086L-130.61588601976365,-190.0107345172621L-144.1462352624668,-166.3811954773335z" style="fill:rgb(83,212,212)"/><path d="M11.249142046290864,235.0111554697801L-158.8347976989369,-6.1335297213619L-10.829104774502907,217.01021361542368z" style="fill:rgb(38,44,164)"/><path d="M130.28709028824647,131.19848641113288L27.032863507931015,-84.97783515046663L136.9501759745534,158.27819039714836z" style="fill:rgb(246,167,148)"/><path d="M-102.51508142619738,-124.08638460571744L-92.20470050553142,-63.59309120595231L-65.6067607989098,-56.71561849353029z" style="fill:rgb(57,36,182)"/><path d="M-29.55674639178394,-145.64878891275086L11.72653675369768,-234.77743762008853L-11.614262275107263,-242.42741025589115z" style="fill:rgb(83,212,212)"/><path d="M15.34476581150345,-188.52260466073952L32.57556978511705,-98.46608940492321L45.317064432838215,-117.72027777803105z" style="fill:rgb(231,109,199)"/><path d="M-29.55674639178394,-145.64878891275086L-144.1462352624668,-166.3811954773335L-144.24620421285405,-145.03582653323423z" style="fill:rgb(83,212,212)"/><path d="M-102.51508142619738,-124.08638460571744L-129.86085087516193,-129.83115852594668L-92.20470050553142,-63.59309120595231z" style="fill:rgb(57,36,182)"/><path d="M-66.75048576124291,-129.5760357881917L-65.6067607989098,-56.71561849353029L-31.419070191584506,-60.93557775289499z" style="fill:rgb(102,32,209)"/><path d="M1.3871496788227473,-169.08406416731776L3.7038936186147695,-75.83707662646398L32.57558245441959,-98.46611432371763z" style="fill:rgb(197,72,218)"/><path d="M-29.55674639178394,-145.64878891275086L23.266244219454013,-218.20127570700515L11.72653675369768,-234.77743762008853z" style="fill:rgb(83,212,212)"/><path d="M42.475306283221265,241.5672874572892L-135.0392593751554,10.195661340557757L11.249142046290864,235.0111554697801z" style="fill:rgb(78,32,197)"/><path d="M136.9501759745534,158.27819039714836L14.37287026181902,-52.81044690281883L129.34631398186193,188.371103920457z" style="fill:rgb(241,128,184)"/><path d="M-29.55674639178394,-145.64878891275086L-31.419070191584506,-60.93557775289499L3.7038936186147695,-75.83707662646398z" style="fill:rgb(152,45,222)"/><path d="M-29.55674639178394,-145.64878891275086L-144.24620421285405,-145.03582653323423L-129.86085087516193,-129.83115852594668z" style="fill:rgb(83,212,212)"/><path d="M15.34476581150345,-188.52260466073952L1.3871355131378948,-169.08404715375184L32.57556978511705,-98.46608940492321z" style="fill:rgb(231,109,199)"/><path d="M-66.75048576124291,-129.5760357881917L-102.51508142619738,-124.08638460571744L-65.6067607989098,-56.71561849353029z" style="fill:rgb(102,32,209)"/><path d="M-29.55674639178394,-145.64878891275086L19.975052446849723,-194.97111983977493L23.266244219454013,-218.20127570700515z" style="fill:rgb(83,212,212)"/><path d="M77.08626719278844,234.7960106335285L-98.22976782603803,13.521203918901627L42.475306283221265,241.5672874572892z" style="fill:rgb(127,37,217)"/><path d="M129.34631398186193,188.371103920457L-14.826899311523066,-21.50086952789277L108.12397744548704,215.75618876705101z" style="fill:rgb(216,90,210)"/><path d="M1.3871496788227473,-169.08406416731776L-29.55674639178394,-145.64878891275086L3.7038936186147695,-75.83707662646398z" style="fill:rgb(197,72,218)"/><path d="M-29.55674639178394,-145.64878891275086L-66.75048576124291,-129.5760357881917L-31.419070191584506,-60.93557775289499z" style="fill:rgb(152,45,222)"/><path d="M-29.55674639178394,-145.64878891275086L-129.86085087516193,-129.83115852594668L-102.51508142619738,-124.08638460571744z" style="fill:rgb(83,212,212)"/><path d="M108.12397744548704,215.75618876705101L-55.17889800251485,2.312021478781775L77.08626719278844,234.7960106335285z" style="fill:rgb(176,57,222)"/><path d="M-29.55674639178394,-145.64878891275086L1.3871496788227473,-169.08406416731776L19.975052446849723,-194.97111983977493zM-29.55674639178394,-145.64878891275086L-102.51508142619738,-124.08638460571744L-66.75048576124291,-129.5760357881917zM-103.68568069700295,-113.61499833111871L-29.900564956863043,-135.23226716103267L-66.75048576124291,-129.5760357881917z" style="fill:rgb(83,212,212)"/><path d="M130.28709028824647,131.19848641113288L21.936507235654478,-111.88366355260628L27.032863507931015,-84.97783515046663z" style="fill:rgb(246,167,148)"/><path d="M-103.68568069700295,-113.61499833111871L-135.5847806362228,-89.6640536046454L-157.78479093661997,-60.93192472925649zM-103.68568069700295,-113.61499833111871L1.4504339955218177,-129.30033337274182L-29.900564956863043,-135.23226716103267zM-103.68568069700295,-113.61499833111871L-157.78479093661997,-60.93192472925649L-166.37438335522998,-31.492134624396755z" style="fill:rgb(83,212,212)"/><path d="M11.249142046290864,235.0111554697801L-135.0392593751554,10.195661340557757L-158.8347976989369,-6.1335297213619z" style="fill:rgb(38,44,164)"/><path d="M136.9501759745534,158.27819039714836L27.032863507931015,-84.97783515046663L14.37287026181902,-52.81044690281883z" style="fill:rgb(241,128,184)"/><path d="M-103.68568069700295,-113.61499833111871L21.936507235654478,-111.88366355260628L1.4504339955218177,-129.30033337274182zM-103.68568069700295,-113.61499833111871L-166.37438335522998,-31.492134624396755L-158.8347976989369,-6.1335297213619z" style="fill:rgb(83,212,212)"/><path d="M42.475306283221265,241.5672874572892L-98.22976782603803,13.521203918901627L-135.0392593751554,10.195661340557757z" style="fill:rgb(78,32,197)"/><path d="M129.34631398186193,188.371103920457L14.37287026181902,-52.81044690281883L-14.826899311523066,-21.50086952789277z" style="fill:rgb(216,90,210)"/><path d="M-103.68568069700295,-113.61499833111871L27.032863507931015,-84.97783515046663L21.936507235654478,-111.88366355260628z" style="fill:rgb(83,212,212)"/><path d="M77.08626719278844,234.7960106335285L-55.17889800251485,2.312021478781775L-98.22976782603803,13.521203918901627z" style="fill:rgb(127,37,217)"/><path d="M-103.68568069700295,-113.61499833111871L-158.8347976989369,-6.1335297213619L-135.0392593751554,10.195661340557757z" style="fill:rgb(83,212,212)"/><path d="M108.12397744548704,215.75618876705101L-14.826899311523066,-21.50086952789277L-55.17889800251485,2.312021478781775z" style="fill:rgb(176,57,222)"/><path d="M-103.68568069700295,-113.61499833111871L14.37287026181902,-52.81044690281883L27.032863507931015,-84.97783515046663zM-103.68568069700295,-113.61499833111871L-135.0392593751554,10.195661340557757L-98.22976782603803,13.521203918901627zM-103.68568069700295,-113.61499833111871L-14.826899311523066,-21.50086952789277L14.37287026181902,-52.81044690281883zM-103.68568069700295,-113.61499833111871L-98.22976782603803,13.521203918901627L-55.17889800251485,2.312021478781775zM-103.68568069700295,-113.61499833111871L-55.17889800251485,2.312021478781775L-14.826899311523066,-21.50086952789277z" style="fill:rgb(83,212,212)"/></svg>
